<?xml version="1.0" encoding="UTF-8"?>
<svg width="76px" height="20px" viewBox="0 0 76 20" version="1.1" xmlns="http://www.w3.org/2000/svg" xmlns:xlink="http://www.w3.org/1999/xlink">
    <!-- Generator: Sketch 59.1 (86144) - https://sketch.com -->
    <title>heal</title>
    <desc>Created with Sketch.</desc>
    <g id="Page-1" stroke="none" stroke-width="1" fill="none" fill-rule="evenodd">
        <g id="Artboard-Copy" transform="translate(-124.000000, -91.000000)" fill="#013537" fill-rule="nonzero">
            <path d="M139,90.9999998 L136.5,90.9999998 L136.5,97.5777754 L126.5,101.719435 L126.5,90.9999998 L124,90.9999998 L124,111 L126.5,111 L126.5,104.422224 L136.5,100.280549 L136.5,111 L139,111 L139,90.9999998 Z M145.7,93.5000003 L157.088889,93.5000003 L157.088889,91.0000003 L143.2,91.0000003 L143.2,111 L157.088889,111 L157.088889,108.5 L145.7,108.5 L145.7,101 L154.588889,101 L154.588889,98.5000003 L145.7,98.5000003 L145.7,93.5000003 Z M165.465008,107.697218 L171.29,94.3805507 L175.328883,103.611101 L165.465008,107.697218 Z M172.54,90.9999994 L170.04,90.9999994 L161.29,110.999999 L164.01778,110.999999 L176.331673,105.900004 L178.56222,110.999999 L181.29,110.999999 L172.54,90.9999994 Z M199.388889,111 L185.5,111 L185.5,91.0000003 L188,91.0000003 L188,108.5 L199.388889,108.5 L199.388889,111 Z" id="heal"></path>
        </g>
    </g>
</svg>